{
	"nodes":[{
		"name":"Default",
		"mesh":0
	}],
	"asset":{
		"version":"2.0",
		"generator":"Created using the official Cinema 4D glTF Exporter 1.000x284978"
	},
	"scenes":[{
		"nodes":[0]
	}],
	"meshes":[{
		"name":"Default",
		"primitives":[{
			"attributes":{
				"POSITION":1,
				"NORMAL":2
			},
			"indices":0,
			"material":0
		}]
	}],
	"accessors":[{
		"bufferView":0,
		"count":23166,
		"type":"SCALAR",
		"componentType":5123,
		"byteOffset":0,
		"min":[0],
		"max":[4156]
	},
	{
		"bufferView":1,
		"count":4157,
		"type":"VEC3",
		"componentType":5126,
		"byteOffset":0,
		"min":[-1.7974164485931397,
		-2.6475937366485597,
		-0.9679803252220154],
		"max":[1.7974164485931397,
		0.8478345274925232,
		0.44969749450683596]
	},
	{
		"bufferView":1,
		"count":4157,
		"type":"VEC3",
		"componentType":5126,
		"byteOffset":12,
		"min":[-0.9991689920425415,
		-0.9994211196899414,
		-0.9994757771492004],
		"max":[0.9991689920425415,
		0.9999902844429016,
		0.999984085559845]
	}],
	"bufferViews":[{
		"target":34963,
		"buffer":0,
		"byteOffset":0,
		"byteLength":46332
	},
	{
		"target":34962,
		"buffer":0,
		"byteOffset":46332,
		"byteLength":99768,
		"byteStride":24
	}],
	"buffers":[{
		"uri":"data:application/octet-stream;base64,",
		"byteLength":146100
	}],
	"materials":[{
		"pbrMetallicRoughness":{
			"baseColorFactor":[1.0,
			1.0,
			1.0,
			1.0],
			"metallicFactor":0.0,
			"roughnessFactor":0.5
		},
		"emissiveFactor":[0.0,
		0.0,
		0.0],
		"alphaMode":"OPAQUE",
		"doubleSided":false,
		"name":"Default"
	}]
}